<svg xmlns="http://www.w3.org/2000/svg" viewBox="0 0 720.860429 832.948642"><path d="M6.243376 545.303501c-18.052397 53.58299 4.083796 112.47114 52.962413 140.89409l254.220591 135.06162c29.349784 15.59288 64.52863 15.5855 93.871867-.0197l258.106357-137.26499c34.36699-19.6771 55.45583-56.29755 55.45583-95.95217V419.302975c0-2.559533-.65495-5.076492-1.90254-7.311384-4.03796-7.233532-13.17532-9.82405-20.40885-5.786084L360.367549 594.988171l-247.44585-137.790178-50.381351 28.134629C36.735066 500.293231 15.676273 517.0646 6.243376 545.303501ZM.000001 413.645667c0 2.559533.65495 5.076491 1.902532 7.311384 4.037966 7.233532 13.17532 9.82405 20.408852 5.786084l338.181496-188.78266 247.445853 137.790174 50.38135-28.13463c25.80528-14.960608 46.86407-31.731977 56.29697-59.970877 18.0524-53.582987-4.0838-112.471141-52.96241-140.894087L407.43405 11.689427c-29.349784-15.592875-64.528629-15.585492-93.871867.0197L55.455822 148.974118C21.088834 168.651224.000001 205.27167.000001 244.926295Z" fill="#37F" fill-rule="nonzero"/></svg>