<svg xmlns="http://www.w3.org/2000/svg" viewBox="0 0 41.106 44.31"><path d="m23.84.8 13.404 6.94a7.149 7.149 0 0 1 3.862 6.35V30.22c0 2.672-1.49 5.12-3.862 6.349L23.84 43.51a7.149 7.149 0 0 1-6.574 0L3.862 36.57A7.149 7.149 0 0 1 0 30.22V14.09c0-2.671 1.49-5.12 3.862-6.348L17.266.8a7.149 7.149 0 0 1 6.574 0Zm-3.234 10.412-8.969 10.115a.36.36 0 0 0 .27.6l5.366-.001.786 8.761a.576.576 0 0 0 .574.525h3.947a.576.576 0 0 0 .573-.525l.787-8.761h5.366a.36.36 0 0 0 .27-.599l-8.97-10.115Z" fill="#377DFF" fill-rule="evenodd"/></svg>